<svg width="25" height="26" viewBox="0 0 25 26" fill="none" xmlns="http://www.w3.org/2000/svg">
<path d="M12.4966 6.27965C8.94743 6.27965 6.08305 9.14409 6.08305 12.6934C6.08305 16.2426 8.94743 19.1071 12.4966 19.1071C16.0458 19.1071 18.9102 16.2426 18.9102 12.6934C18.9102 9.14409 16.0458 6.27965 12.4966 6.27965ZM12.4966 16.8618C10.2014 16.8618 8.32828 14.9887 8.32828 12.6934C8.32828 10.3981 10.2014 8.52492 12.4966 8.52492C14.7919 8.52492 16.665 10.3981 16.665 12.6934C16.665 14.9887 14.7919 16.8618 12.4966 16.8618ZM19.1729 4.52221C18.3442 4.52221 17.675 5.19142 17.675 6.0201C17.675 6.84879 18.3442 7.51799 19.1729 7.51799C20.0016 7.51799 20.6708 6.85191 20.6708 6.0201C20.671 5.82333 20.6324 5.62844 20.5572 5.44659C20.4821 5.26475 20.3717 5.09952 20.2326 4.96038C20.0935 4.82124 19.9282 4.71092 19.7464 4.63573C19.5646 4.56054 19.3697 4.52197 19.1729 4.52221ZM24.9986 12.6934C24.9986 10.9672 25.0142 9.25666 24.9173 7.53362C24.8204 5.53227 24.3638 3.75607 22.9004 2.29258C21.4338 0.825966 19.6607 0.372535 17.6594 0.275594C15.9333 0.178654 14.2228 0.19429 12.4998 0.19429C10.7736 0.19429 9.06313 0.178654 7.34013 0.275594C5.33881 0.372535 3.56265 0.829093 2.09918 2.29258C0.632595 3.7592 0.179172 5.53227 0.0822335 7.53362C-0.0147052 9.25979 0.000930124 10.9703 0.000930124 12.6934C0.000930124 14.4164 -0.0147052 16.1301 0.0822335 17.8531C0.179172 19.8544 0.635722 21.6306 2.09918 23.0941C3.56577 24.5608 5.33881 25.0142 7.34013 25.1111C9.06626 25.2081 10.7768 25.1924 12.4998 25.1924C14.2259 25.1924 15.9364 25.2081 17.6594 25.1111C19.6607 25.0142 21.4369 24.5576 22.9004 23.0941C24.3669 21.6275 24.8204 19.8544 24.9173 17.8531C25.0174 16.1301 24.9986 14.4195 24.9986 12.6934ZM22.2468 20.0671C22.0185 20.6362 21.7433 21.0615 21.3024 21.4993C20.8615 21.9402 20.4394 22.2154 19.8702 22.4437C18.2254 23.0973 14.3197 22.9503 12.4966 22.9503C10.6736 22.9503 6.76475 23.0973 5.11992 22.4468C4.55079 22.2185 4.12551 21.9434 3.68773 21.5024C3.24681 21.0615 2.97163 20.6394 2.74336 20.0702C2.09293 18.4222 2.2399 14.5165 2.2399 12.6934C2.2399 10.8703 2.09293 6.96136 2.74336 5.3165C2.97163 4.74737 3.24681 4.32208 3.68773 3.88428C4.12864 3.44649 4.55079 3.16817 5.11992 2.93989C6.76475 2.28946 10.6736 2.43643 12.4966 2.43643C14.3197 2.43643 18.2285 2.28946 19.8734 2.93989C20.4425 3.16817 20.8678 3.44336 21.3056 3.88428C21.7465 4.32521 22.0216 4.74737 22.2499 5.3165C22.9004 6.96136 22.7534 10.8703 22.7534 12.6934C22.7534 14.5165 22.9004 18.4222 22.2468 20.0671Z" fill="black"/>
</svg>
