<svg width="80" height="87" viewBox="0 0 80 87" fill="none" xmlns="http://www.w3.org/2000/svg">
<g filter="url(#filter0_d_889_2)">
<path d="M32.176 19.16V26.648H23.152V53H13.744V26.648H4.816V19.16H32.176Z" fill="url(#paint0_linear_889_2)"/>
<path d="M32.176 19.16H33.176V18.16H32.176V19.16ZM32.176 26.648V27.648H33.176V26.648H32.176ZM23.152 26.648V25.648H22.152V26.648H23.152ZM23.152 53V54H24.152V53H23.152ZM13.744 53H12.744V54H13.744V53ZM13.744 26.648H14.744V25.648H13.744V26.648ZM4.816 26.648H3.816V27.648H4.816V26.648ZM4.816 19.16V18.16H3.816V19.16H4.816ZM31.176 19.16V26.648H33.176V19.16H31.176ZM32.176 25.648H23.152V27.648H32.176V25.648ZM22.152 26.648V53H24.152V26.648H22.152ZM23.152 52H13.744V54H23.152V52ZM14.744 53V26.648H12.744V53H14.744ZM13.744 25.648H4.816V27.648H13.744V25.648ZM5.816 26.648V19.16H3.816V26.648H5.816ZM4.816 20.16H32.176V18.16H4.816V20.16Z" fill="black"/>
</g>
<g filter="url(#filter1_d_889_2)">
<path d="M51.464 60L48.728 57.408C45.688 59.488 42.056 60.528 37.832 60.528C35.176 60.528 32.856 60.096 30.872 59.232C28.92 58.368 27.4 57.152 26.312 55.584C25.256 54.016 24.728 52.208 24.728 50.16C24.728 48.112 25.256 46.256 26.312 44.592C27.4 42.896 29.016 41.52 31.16 40.464C30.36 39.44 29.784 38.464 29.432 37.536C29.08 36.608 28.904 35.616 28.904 34.56C28.904 32.896 29.336 31.376 30.2 30C31.064 28.624 32.328 27.536 33.992 26.736C35.688 25.904 37.688 25.488 39.992 25.488C42.328 25.488 44.312 25.92 45.944 26.784C47.576 27.616 48.792 28.736 49.592 30.144C50.424 31.52 50.824 33.024 50.792 34.656H42.104C42.104 33.92 41.896 33.36 41.48 32.976C41.064 32.592 40.552 32.4 39.944 32.4C39.304 32.4 38.76 32.592 38.312 32.976C37.896 33.328 37.688 33.824 37.688 34.464C37.688 35.584 38.488 36.944 40.088 38.544L48.008 46.272C48.296 45.696 48.6 45.008 48.92 44.208L49.88 42.48H59.192L57.8 45.168C56.648 47.92 55.384 50.24 54.008 52.128L62.072 60H51.464ZM38.456 52.992C40.152 52.992 41.656 52.624 42.968 51.888L36.296 45.504C35.464 46.016 34.84 46.608 34.424 47.28C34.008 47.952 33.8 48.64 33.8 49.344C33.8 50.368 34.216 51.232 35.048 51.936C35.88 52.64 37.016 52.992 38.456 52.992Z" fill="url(#paint1_linear_889_2)"/>
<path d="M51.464 60L50.7763 60.726L51.0655 61H51.464V60ZM48.728 57.408L49.4157 56.682L48.8296 56.1268L48.1633 56.5827L48.728 57.408ZM30.872 59.232L30.4672 60.1464L30.4727 60.1488L30.872 59.232ZM26.312 55.584L25.4825 56.1427L25.4904 56.1541L26.312 55.584ZM26.312 44.592L25.4703 44.052L25.4677 44.0562L26.312 44.592ZM31.16 40.464L31.6018 41.3611L32.7053 40.8176L31.948 39.8484L31.16 40.464ZM29.432 37.536L30.367 37.1813L30.367 37.1813L29.432 37.536ZM30.2 30L31.0469 30.5318L31.0469 30.5318L30.2 30ZM33.992 26.736L34.4253 27.6373L34.4324 27.6338L33.992 26.736ZM45.944 26.784L45.4761 27.6678L45.4829 27.6714L45.4898 27.6749L45.944 26.784ZM49.592 30.144L48.7225 30.638L48.7292 30.6498L48.7363 30.6614L49.592 30.144ZM50.792 34.656V35.656H51.7726L51.7918 34.6756L50.792 34.656ZM42.104 34.656H41.104V35.656H42.104V34.656ZM38.312 32.976L38.958 33.7394L38.9628 33.7353L38.312 32.976ZM40.088 38.544L39.3808 39.2512L39.3896 39.2597L40.088 38.544ZM48.008 46.272L47.3096 46.9877L48.2899 47.9443L48.9024 46.7192L48.008 46.272ZM48.92 44.208L48.0458 43.7224L48.0151 43.7778L47.9915 43.8366L48.92 44.208ZM49.88 42.48V41.48H49.2916L49.0058 41.9944L49.88 42.48ZM59.192 42.48L60.08 42.9399L60.836 41.48H59.192V42.48ZM57.8 45.168L56.912 44.7081L56.8933 44.7443L56.8776 44.7819L57.8 45.168ZM54.008 52.128L53.1999 51.539L52.6899 52.2387L53.3095 52.8436L54.008 52.128ZM62.072 60V61H64.528L62.7705 59.2844L62.072 60ZM42.968 51.888L43.4573 52.7601L44.6353 52.0993L43.6593 51.1655L42.968 51.888ZM36.296 45.504L36.9873 44.7815L36.4295 44.2477L35.7719 44.6523L36.296 45.504ZM34.424 47.28L33.5737 46.7536L33.5737 46.7536L34.424 47.28ZM35.048 51.936L35.6939 51.1726L35.6939 51.1726L35.048 51.936ZM52.1517 59.274L49.4157 56.682L48.0403 58.134L50.7763 60.726L52.1517 59.274ZM48.1633 56.5827C45.3132 58.5328 41.885 59.528 37.832 59.528V61.528C42.227 61.528 46.0628 60.4432 49.2927 58.2333L48.1633 56.5827ZM37.832 59.528C35.283 59.528 33.1041 59.1133 31.2713 58.3152L30.4727 60.1488C32.6079 61.0787 35.069 61.528 37.832 61.528V59.528ZM31.2767 58.3176C29.4722 57.5189 28.1048 56.4137 27.1336 55.0139L25.4904 56.1541C26.6952 57.8903 28.3678 59.2171 30.4673 60.1464L31.2767 58.3176ZM27.1414 55.0254C26.2059 53.6363 25.728 52.0263 25.728 50.16H23.728C23.728 52.3897 24.3061 54.3957 25.4826 56.1426L27.1414 55.0254ZM25.728 50.16C25.728 48.2939 26.2061 46.6251 27.1563 45.1278L25.4677 44.0562C24.3059 45.8869 23.728 47.9301 23.728 50.16H25.728ZM27.1537 45.132C28.1265 43.6156 29.5905 42.3518 31.6018 41.3611L30.7182 39.5669C28.4415 40.6882 26.6735 42.1764 25.4703 44.052L27.1537 45.132ZM31.948 39.8484C31.1919 38.8805 30.6743 37.9916 30.367 37.1813L28.497 37.8907C28.8937 38.9364 29.5281 39.9995 30.372 41.0796L31.948 39.8484ZM30.367 37.1813C30.0607 36.3737 29.904 35.5026 29.904 34.56H27.904C27.904 35.7294 28.0993 36.8423 28.497 37.8907L30.367 37.1813ZM29.904 34.56C29.904 33.0793 30.2855 31.7444 31.0469 30.5318L29.3531 29.4682C28.3865 31.0076 27.904 32.7127 27.904 34.56H29.904ZM31.0469 30.5318C31.7975 29.3364 32.9075 28.367 34.4253 27.6373L33.5587 25.8347C31.7485 26.705 30.3305 27.9116 29.3531 29.4682L31.0469 30.5318ZM34.4324 27.6338C35.9645 26.8822 37.8077 26.488 39.992 26.488V24.488C37.5683 24.488 35.4115 24.9258 33.5516 25.8382L34.4324 27.6338ZM39.992 26.488C42.2071 26.488 44.0215 26.8977 45.4761 27.6678L46.4119 25.9002C44.6025 24.9423 42.4489 24.488 39.992 24.488V26.488ZM45.4898 27.6749C46.9711 28.4301 48.0315 29.4217 48.7225 30.638L50.4615 29.65C49.5525 28.0503 48.1809 26.8019 46.3982 25.8931L45.4898 27.6749ZM48.7363 30.6614C49.4689 31.8731 49.8205 33.1904 49.7922 34.6364L51.7918 34.6756C51.8275 32.8576 51.3791 31.1669 50.4477 29.6266L48.7363 30.6614ZM50.792 33.656H42.104V35.656H50.792V33.656ZM43.104 34.656C43.104 33.7293 42.8364 32.8671 42.1583 32.2412L40.8017 33.7108C40.9556 33.8529 41.104 34.1107 41.104 34.656H43.104ZM42.1583 32.2412C41.5432 31.6734 40.7831 31.4 39.944 31.4V33.4C40.3209 33.4 40.5848 33.5106 40.8017 33.7108L42.1583 32.2412ZM39.944 31.4C39.0871 31.4 38.3063 31.6638 37.6612 32.2167L38.9628 33.7353C39.2137 33.5202 39.5209 33.4 39.944 33.4V31.4ZM37.6661 32.2126C36.9855 32.7885 36.688 33.5867 36.688 34.464H38.688C38.688 34.0613 38.8065 33.8675 38.9579 33.7394L37.6661 32.2126ZM36.688 34.464C36.688 36.0156 37.7585 37.6288 39.3809 39.2511L40.7951 37.8369C39.2175 36.2592 38.688 35.1524 38.688 34.464H36.688ZM39.3896 39.2597L47.3096 46.9877L48.7064 45.5563L40.7864 37.8283L39.3896 39.2597ZM48.9024 46.7192C49.2062 46.1118 49.5214 45.3971 49.8485 44.5794L47.9915 43.8366C47.6786 44.6189 47.3858 45.2802 47.1136 45.8248L48.9024 46.7192ZM49.7942 44.6936L50.7542 42.9656L49.0058 41.9944L48.0458 43.7224L49.7942 44.6936ZM49.88 43.48H59.192V41.48H49.88V43.48ZM58.304 42.0201L56.912 44.7081L58.688 45.6279L60.08 42.9399L58.304 42.0201ZM56.8776 44.7819C55.7478 47.4808 54.5194 49.7285 53.1999 51.539L54.8161 52.717C56.2486 50.7515 57.5482 48.3592 58.7224 45.5541L56.8776 44.7819ZM53.3095 52.8436L61.3735 60.7156L62.7705 59.2844L54.7065 51.4124L53.3095 52.8436ZM62.072 59H51.464V61H62.072V59ZM38.456 53.992C40.3011 53.992 41.9776 53.5902 43.4573 52.7601L42.4787 51.0159C41.3344 51.6578 40.0029 51.992 38.456 51.992V53.992ZM43.6593 51.1655L36.9873 44.7815L35.6047 46.2265L42.2767 52.6105L43.6593 51.1655ZM35.7719 44.6523C34.838 45.227 34.0887 45.9217 33.5737 46.7536L35.2743 47.8064C35.5913 47.2943 36.09 46.805 36.8201 46.3557L35.7719 44.6523ZM33.5737 46.7536C33.0722 47.5638 32.8 48.4319 32.8 49.344H34.8C34.8 48.8481 34.9438 48.3402 35.2743 47.8064L33.5737 46.7536ZM32.8 49.344C32.8 50.6831 33.362 51.8193 34.4021 52.6994L35.6939 51.1726C35.07 50.6447 34.8 50.0529 34.8 49.344H32.8ZM34.4021 52.6994C35.4657 53.5994 36.8563 53.992 38.456 53.992V51.992C37.1757 51.992 36.2943 51.6806 35.6939 51.1726L34.4021 52.6994Z" fill="black"/>
</g>
<g filter="url(#filter2_d_889_2)">
<path d="M75.424 45.44C75.424 47.488 74.944 49.36 73.984 51.056C73.056 52.72 71.632 54.064 69.712 55.088C67.824 56.08 65.504 56.576 62.752 56.576H58.096V68H48.688V34.16H62.752C65.472 34.16 67.776 34.64 69.664 35.6C71.584 36.56 73.024 37.888 73.984 39.584C74.944 41.28 75.424 43.232 75.424 45.44ZM61.84 49.088C64.496 49.088 65.824 47.872 65.824 45.44C65.824 42.976 64.496 41.744 61.84 41.744H58.096V49.088H61.84Z" fill="url(#paint2_linear_889_2)"/>
<path d="M73.984 51.056L73.1137 50.5634L73.1106 50.5689L73.984 51.056ZM69.712 55.088L70.1771 55.9733L70.1826 55.9704L69.712 55.088ZM58.096 56.576V55.576H57.096V56.576H58.096ZM58.096 68V69H59.096V68H58.096ZM48.688 68H47.688V69H48.688V68ZM48.688 34.16V33.16H47.688V34.16H48.688ZM69.664 35.6L69.2107 36.4914L69.2168 36.4944L69.664 35.6ZM73.984 39.584L73.1137 40.0766L73.1137 40.0766L73.984 39.584ZM58.096 41.744V40.744H57.096V41.744H58.096ZM58.096 49.088H57.096V50.088H58.096V49.088ZM74.424 45.44C74.424 47.3245 73.9843 49.0254 73.1137 50.5634L74.8543 51.5486C75.9037 49.6946 76.424 47.6515 76.424 45.44H74.424ZM73.1106 50.5689C72.2889 52.0423 71.0167 53.2588 69.2414 54.2056L70.1826 55.9704C72.2473 54.8692 73.8231 53.3977 74.8574 51.5431L73.1106 50.5689ZM69.2469 54.2028C67.5379 55.1007 65.3876 55.576 62.752 55.576V57.576C65.6204 57.576 68.1101 57.0593 70.1771 55.9732L69.2469 54.2028ZM62.752 55.576H58.096V57.576H62.752V55.576ZM57.096 56.576V68H59.096V56.576H57.096ZM58.096 67H48.688V69H58.096V67ZM49.688 68V34.16H47.688V68H49.688ZM48.688 35.16H62.752V33.16H48.688V35.16ZM62.752 35.16C65.3579 35.16 67.4973 35.6202 69.2108 36.4914L70.1172 34.7086C68.0547 33.6598 65.5861 33.16 62.752 33.16V35.16ZM69.2168 36.4944C70.9778 37.3749 72.2615 38.571 73.1137 40.0766L74.8543 39.0914C73.7865 37.2049 72.1902 35.7451 70.1112 34.7056L69.2168 36.4944ZM73.1137 40.0766C73.9779 41.6033 74.424 43.3813 74.424 45.44H76.424C76.424 43.0827 75.9101 40.9567 74.8543 39.0914L73.1137 40.0766ZM61.84 50.088C63.3014 50.088 64.584 49.7553 65.5033 48.9135C66.4394 48.0564 66.824 46.8339 66.824 45.44H64.824C64.824 46.4781 64.5446 47.0796 64.1527 47.4385C63.744 47.8127 63.0346 48.088 61.84 48.088V50.088ZM66.824 45.44C66.824 44.0338 66.4416 42.8008 65.5081 41.9349C64.5888 41.0821 63.3043 40.744 61.84 40.744V42.744C63.0317 42.744 63.7392 43.0219 64.1479 43.4011C64.5425 43.7671 64.824 44.3822 64.824 45.44H66.824ZM61.84 40.744H58.096V42.744H61.84V40.744ZM57.096 41.744V49.088H59.096V41.744H57.096ZM58.096 50.088H61.84V48.088H58.096V50.088Z" fill="black"/>
</g>
<defs>
<filter id="filter0_d_889_2" x="0.8125" y="19.1599" width="35.3672" height="41.8401" filterUnits="userSpaceOnUse" color-interpolation-filters="sRGB">
<feFlood flood-opacity="0" result="BackgroundImageFix"/>
<feColorMatrix in="SourceAlpha" type="matrix" values="0 0 0 0 0 0 0 0 0 0 0 0 0 0 0 0 0 0 127 0" result="hardAlpha"/>
<feOffset dy="4"/>
<feGaussianBlur stdDeviation="2"/>
<feComposite in2="hardAlpha" operator="out"/>
<feColorMatrix type="matrix" values="0 0 0 0 0 0 0 0 0 0 0 0 0 0 0 0 0 0 0.25 0"/>
<feBlend mode="normal" in2="BackgroundImageFix" result="effect1_dropShadow_889_2"/>
<feBlend mode="normal" in="SourceGraphic" in2="effect1_dropShadow_889_2" result="shape"/>
</filter>
<filter id="filter1_d_889_2" x="20.7266" y="25.488" width="45.3438" height="43.04" filterUnits="userSpaceOnUse" color-interpolation-filters="sRGB">
<feFlood flood-opacity="0" result="BackgroundImageFix"/>
<feColorMatrix in="SourceAlpha" type="matrix" values="0 0 0 0 0 0 0 0 0 0 0 0 0 0 0 0 0 0 127 0" result="hardAlpha"/>
<feOffset dy="4"/>
<feGaussianBlur stdDeviation="2"/>
<feComposite in2="hardAlpha" operator="out"/>
<feColorMatrix type="matrix" values="0 0 0 0 0 0 0 0 0 0 0 0 0 0 0 0 0 0 0.25 0"/>
<feBlend mode="normal" in2="BackgroundImageFix" result="effect1_dropShadow_889_2"/>
<feBlend mode="normal" in="SourceGraphic" in2="effect1_dropShadow_889_2" result="shape"/>
</filter>
<filter id="filter2_d_889_2" x="44.6875" y="34.1599" width="34.7344" height="41.8401" filterUnits="userSpaceOnUse" color-interpolation-filters="sRGB">
<feFlood flood-opacity="0" result="BackgroundImageFix"/>
<feColorMatrix in="SourceAlpha" type="matrix" values="0 0 0 0 0 0 0 0 0 0 0 0 0 0 0 0 0 0 127 0" result="hardAlpha"/>
<feOffset dy="4"/>
<feGaussianBlur stdDeviation="2"/>
<feComposite in2="hardAlpha" operator="out"/>
<feColorMatrix type="matrix" values="0 0 0 0 0 0 0 0 0 0 0 0 0 0 0 0 0 0 0.25 0"/>
<feBlend mode="normal" in2="BackgroundImageFix" result="effect1_dropShadow_889_2"/>
<feBlend mode="normal" in="SourceGraphic" in2="effect1_dropShadow_889_2" result="shape"/>
</filter>
<linearGradient id="paint0_linear_889_2" x1="18.5" y1="0" x2="18.5" y2="72" gradientUnits="userSpaceOnUse">
<stop stop-color="#77B1EF"/>
<stop offset="1" stop-color="#2C95F1"/>
</linearGradient>
<linearGradient id="paint1_linear_889_2" x1="43" y1="7" x2="43" y2="79" gradientUnits="userSpaceOnUse">
<stop stop-color="white"/>
<stop offset="1" stop-color="#FBFBFB"/>
</linearGradient>
<linearGradient id="paint2_linear_889_2" x1="61.5" y1="15" x2="61.5" y2="87" gradientUnits="userSpaceOnUse">
<stop stop-color="#D5EAFC"/>
<stop offset="1" stop-color="#87BFFB"/>
</linearGradient>
</defs>
</svg>
