<svg width="3589" height="300" viewBox="0 0 3589 300" fill="none" xmlns="http://www.w3.org/2000/svg">
<path fill-rule="evenodd" clip-rule="evenodd" d="M0 300L169.718 280.07C392.844 250.699 572.056 236.014 897.25 218.182C1222.44 200.35 1495.42 218.182 1794.5 245.455C2093.58 272.727 2392.67 300 2691.75 300C2990.83 300 3289.92 272.727 3439.46 259.091L3589 245.455V0H3439.46C3289.92 0 2990.83 0 2691.75 0C2392.67 0 2093.58 0 1794.5 0C1495.42 0 1196.33 0 897.25 0C598.167 0 299.083 0 149.542 0H0V300Z" fill="#D8E8FA"/>
</svg>
