<svg width="24" height="24" viewBox="0 0 24 24" fill="none" xmlns="http://www.w3.org/2000/svg">
<path d="M20.1414 13.3523L20.1461 13.3547C20.2188 12.9117 20.2539 12.4594 20.2539 12.0117C20.2539 11.6109 20.2234 11.2078 20.1672 10.8141C20.2234 11.2055 20.2516 11.6016 20.2516 11.9977C20.2516 12.4523 20.2141 12.907 20.1414 13.3523ZM2.32188 9.33047C2.31016 9.32109 2.30078 9.31172 2.28906 9.3C2.30547 9.31641 2.32188 9.33281 2.34063 9.34922L3.87578 10.6594V10.657L2.32188 9.33047ZM14.8984 4.26797H14.9008L14.5375 2.30391C14.5328 2.28047 14.5281 2.25937 14.5211 2.23828C14.5234 2.25 14.5281 2.26406 14.5305 2.27578L14.8984 4.26797ZM16.1641 17.0766L16.9 16.4719L19.075 17.243C19.4734 16.7063 19.8086 16.1297 20.0734 15.518L18.3227 14.0203L18.4773 13.0805C18.5359 12.7266 18.5664 12.3633 18.5664 12C18.5664 11.6367 18.5359 11.2734 18.4773 10.9195L18.325 9.98438L20.0758 8.48672C19.8086 7.87734 19.4758 7.29844 19.0773 6.76172L16.9023 7.53281L16.1664 6.92813C15.6063 6.46875 14.9805 6.10781 14.3078 5.85469L13.4148 5.51953L12.9953 3.24609C12.3334 3.17109 11.6651 3.17109 11.0031 3.24609L10.5836 5.52422L9.69531 5.85938C9.02734 6.1125 8.40625 6.47344 7.85078 6.93047L7.11484 7.5375L4.92578 6.75937C4.52734 7.29609 4.19219 7.87266 3.92734 8.48438L5.69688 9.99609L5.54453 10.9336C5.48594 11.2828 5.45781 11.6414 5.45781 12C5.45781 12.3562 5.48828 12.7172 5.54453 13.0664L5.69688 14.0039L3.92734 15.5156C4.19453 16.125 4.52734 16.7039 4.92578 17.2406L7.11484 16.4625L7.85078 17.0695C8.40625 17.5266 9.02734 17.8875 9.69531 18.1406L10.5813 18.4805L11.0008 20.7586C11.6617 20.8336 12.3344 20.8336 12.993 20.7586L13.4125 18.4852L14.3055 18.15C14.9805 17.8969 15.6039 17.5359 16.1641 17.0766V17.0766ZM12.0133 15.8977C11.2984 15.8977 10.6258 15.7148 10.0375 15.3937C8.75078 14.6953 7.87656 13.3336 7.87656 11.7656C7.87656 9.4875 9.72344 7.64062 12.0016 7.64062C13.5695 7.64062 14.9313 8.51484 15.6297 9.80156C15.9508 10.3875 16.1336 11.0602 16.1336 11.7773C16.1336 14.0531 14.2891 15.8977 12.0133 15.8977V15.8977ZM4.85781 19.05C4.72891 19.0945 4.59531 19.1039 4.46875 19.0781C4.60234 19.1063 4.74297 19.1016 4.87891 19.0547L6.78672 18.375C6.78438 18.3727 6.77969 18.3703 6.77734 18.368L4.85781 19.05V19.05ZM21.6766 9.33047L20.1414 10.643C20.1414 10.6477 20.1438 10.6547 20.1438 10.6594L21.6766 9.34922C21.843 9.20625 21.9367 9 21.9391 8.78672C21.932 8.99297 21.8383 9.19219 21.6766 9.33047Z" fill="#676767" fill-opacity="0.15"/>
<path d="M21.9359 15.1548C21.9477 15.2649 21.9359 15.3774 21.8961 15.4853L21.875 15.5462C21.4513 16.7269 20.8186 17.8217 20.007 18.7782L19.9648 18.8274C19.8665 18.9437 19.7352 19.0272 19.5882 19.067C19.4413 19.1067 19.2857 19.1009 19.1422 19.0501L17.2367 18.3728C16.5377 18.9487 15.7481 19.4048 14.9 19.7228L14.532 21.7149C14.5043 21.8648 14.4316 22.0027 14.3235 22.1103C14.2155 22.2179 14.0774 22.2901 13.9273 22.3173L13.8641 22.329C13.2515 22.4397 12.6303 22.4954 12.0078 22.4954H12.0148C12.6406 22.4954 13.2664 22.4392 13.8758 22.329L13.9391 22.3173C14.0891 22.2901 14.2273 22.2179 14.3353 22.1103C14.4433 22.0027 14.516 21.8648 14.5438 21.7149L14.9117 19.7251C15.7602 19.4063 16.543 18.954 17.2461 18.3774L19.1492 19.0548C19.2927 19.1055 19.4483 19.1114 19.5952 19.0717C19.7422 19.0319 19.8736 18.9483 19.9719 18.8321L20.0141 18.7829C20.8297 17.8196 21.4555 16.7345 21.8797 15.5556L21.9008 15.4946C21.9383 15.3845 21.95 15.2673 21.9359 15.1548V15.1548Z" fill="#676767" fill-opacity="0.15"/>
<path d="M16.125 11.7656C16.125 11.0555 15.9445 10.3852 15.6281 9.80156C14.9297 8.51484 13.568 7.64062 12 7.64062C9.72188 7.64062 7.875 9.4875 7.875 11.7656C7.875 13.3336 8.74922 14.6953 10.0359 15.3937C10.6195 15.7102 11.2875 15.8906 12 15.8906C14.2781 15.8906 16.125 14.0437 16.125 11.7656ZM9.375 11.7656C9.375 11.0648 9.64922 10.4062 10.1437 9.90937C10.6406 9.4125 11.2992 9.14062 12 9.14062C12.7008 9.14062 13.3594 9.4125 13.8563 9.90937C14.1004 10.1528 14.294 10.4422 14.426 10.7607C14.5579 11.0793 14.6255 11.4208 14.625 11.7656C14.625 12.4664 14.3508 13.125 13.8563 13.6219C13.6128 13.866 13.3234 14.0597 13.0049 14.1916C12.6863 14.3235 12.3448 14.3912 12 14.3906C11.2992 14.3906 10.6406 14.1164 10.1437 13.6219C9.89959 13.3784 9.70597 13.0891 9.57404 12.7705C9.44211 12.4519 9.37446 12.1104 9.375 11.7656V11.7656Z" fill="#2C95F1"/>
<path d="M13.9211 22.3173C14.0711 22.2901 14.2093 22.2179 14.3173 22.1103C14.4253 22.0027 14.498 21.8648 14.5258 21.7149L14.8938 19.7228C15.7418 19.4048 16.5314 18.9487 17.2305 18.3728L19.1359 19.0501C19.2795 19.1009 19.435 19.1067 19.582 19.067C19.7289 19.0272 19.8603 18.9437 19.9586 18.8274L20.0008 18.7782C20.8164 17.8149 21.4445 16.7274 21.8688 15.5462L21.8898 15.4853C21.9297 15.3774 21.9414 15.2649 21.9297 15.1548C21.9086 14.9696 21.8195 14.7938 21.6719 14.6649L20.1414 13.3548L20.1367 13.3524C20.2094 12.9071 20.2469 12.4524 20.2469 11.9978C20.2469 11.6017 20.2188 11.2032 20.1625 10.8142C20.1555 10.7626 20.1461 10.711 20.1391 10.6595C20.1391 10.6548 20.1367 10.6478 20.1367 10.6431L21.6719 9.33057C21.8336 9.19229 21.9273 8.99307 21.9344 8.78682C21.9367 8.69307 21.9227 8.59697 21.8898 8.50557L21.8688 8.44463C21.4461 7.26344 20.8133 6.16846 20.0008 5.2126L19.9586 5.16338C19.86 5.04749 19.7287 4.96418 19.5818 4.92443C19.435 4.88468 19.2795 4.89036 19.1359 4.94072L17.2305 5.61807C16.5273 5.0415 15.7445 4.58682 14.8961 4.26807H14.8938L14.5258 2.27588C14.5234 2.26416 14.5211 2.2501 14.5164 2.23838C14.4826 2.09668 14.4083 1.96785 14.3026 1.86758C14.1969 1.7673 14.0644 1.69989 13.9211 1.67354L13.8578 1.66182C12.6367 1.4415 11.3523 1.4415 10.1313 1.66182L10.068 1.67354C9.91797 1.70071 9.77978 1.77289 9.67177 1.88048C9.56376 1.98807 9.49105 2.12598 9.46329 2.27588L9.09297 4.27744C8.25131 4.59626 7.4675 5.0507 6.77266 5.62275L4.85313 4.94072C4.70961 4.88996 4.55405 4.88408 4.4071 4.92385C4.26016 4.96362 4.1288 5.04716 4.03047 5.16338L3.98829 5.2126C3.17675 6.16914 2.54401 7.26393 2.12032 8.44463L2.09922 8.50557C2.05038 8.64178 2.04187 8.78919 2.07471 8.93012C2.10756 9.07105 2.18035 9.19951 2.28438 9.3001C2.2961 9.30947 2.30547 9.32119 2.31719 9.33057L3.8711 10.6571V10.6595C3.79844 11.1001 3.76329 11.5478 3.76329 11.9954C3.76329 12.4454 3.79844 12.8954 3.8711 13.3337L2.31719 14.6603C2.2014 14.7594 2.11853 14.8914 2.07959 15.0388C2.04066 15.1861 2.0475 15.3419 2.09922 15.4853L2.12032 15.5462C2.54454 16.7274 3.17266 17.8173 3.98829 18.7782L4.03047 18.8274C4.14532 18.961 4.29766 19.0478 4.46407 19.0782C4.59063 19.1017 4.72422 19.0946 4.85313 19.0501L6.77266 18.3681C6.77501 18.3704 6.77969 18.3728 6.78204 18.3751C7.47813 18.9446 8.25391 19.397 9.09297 19.7134L9.46329 21.7149C9.49105 21.8648 9.56376 22.0027 9.67177 22.1103C9.77978 22.2179 9.91797 22.2901 10.068 22.3173L10.1313 22.329C10.743 22.4392 11.3688 22.4954 11.9945 22.4954H12.0016C12.625 22.4954 13.2508 22.4392 13.8578 22.329L13.9211 22.3173V22.3173ZM12.9883 20.7587C12.3263 20.8337 11.658 20.8337 10.9961 20.7587L10.5766 18.4806L9.69063 18.1407C9.02266 17.8876 8.40157 17.5267 7.8461 17.0696L7.11016 16.4626L4.9211 17.2407C4.52266 16.704 4.18985 16.1251 3.92266 15.5157L5.69219 14.004L5.53985 13.0665C5.4836 12.7173 5.45313 12.3563 5.45313 12.0001C5.45313 11.6415 5.48125 11.2829 5.53985 10.9337L5.69219 9.99619L3.92266 8.48447C4.1875 7.87275 4.52266 7.29619 4.9211 6.75947L7.11016 7.5376L7.8461 6.93057C8.40157 6.47354 9.02266 6.1126 9.69063 5.85947L10.5789 5.52432L10.9984 3.24619C11.657 3.17119 12.3297 3.17119 12.9906 3.24619L13.4102 5.51963L14.3031 5.85479C14.9758 6.10791 15.6016 6.46885 16.1617 6.92822L16.8977 7.53291L19.0727 6.76182C19.4711 7.29854 19.8039 7.87744 20.0711 8.48682L18.3203 9.98447L18.4727 10.9196C18.5313 11.2735 18.5617 11.6368 18.5617 12.0001C18.5617 12.3634 18.5313 12.7267 18.4727 13.0806L18.318 14.0204L20.0688 15.5181C19.8033 16.1295 19.4683 16.7083 19.0703 17.2431L16.8953 16.472L16.1594 17.0767C15.5992 17.536 14.9758 17.897 14.3008 18.1501L13.4078 18.4853L12.9883 20.7587V20.7587Z" fill="#2C95F1"/>
</svg>
