<svg width="25" height="26" viewBox="0 0 25 26" fill="none" xmlns="http://www.w3.org/2000/svg">
<path d="M12.5 0.193359C5.5971 0.193359 0 5.79046 0 12.6934C0 19.5963 5.5971 25.1934 12.5 25.1934C19.4029 25.1934 25 19.5963 25 12.6934C25 5.79046 19.4029 0.193359 12.5 0.193359ZM18.5073 9.61579C18.5156 9.74693 18.5156 9.88365 18.5156 10.0176C18.5156 14.1136 15.3962 18.8318 9.69587 18.8318C7.93806 18.8318 6.30859 18.3211 4.93583 17.4422C5.18694 17.4701 5.4269 17.4813 5.68359 17.4813C7.13449 17.4813 8.46819 16.9902 9.53125 16.1588C8.16964 16.1309 7.02567 15.238 6.63504 14.0103C7.11216 14.0801 7.54185 14.0801 8.03292 13.9545C7.33183 13.8121 6.70166 13.4313 6.24949 12.8769C5.79731 12.3225 5.55102 11.6286 5.55246 10.9132V10.8742C5.96261 11.1057 6.44531 11.248 6.95034 11.2676C6.52579 10.9846 6.17762 10.6013 5.93669 10.1516C5.69577 9.70187 5.56954 9.19964 5.5692 8.68945C5.5692 8.11189 5.71987 7.58454 5.99051 7.12695C6.7687 8.08492 7.73976 8.86842 8.84058 9.42652C9.9414 9.98462 11.1473 10.3048 12.38 10.3664C11.942 8.25977 13.5156 6.55497 15.4074 6.55497C16.3002 6.55497 17.1038 6.92885 17.6702 7.53153C18.3705 7.40039 19.0402 7.13811 19.6373 6.78655C19.4057 7.50363 18.9202 8.1091 18.2757 8.49135C18.9007 8.42439 19.5033 8.2514 20.0614 8.00865C19.6401 8.62807 19.1127 9.17773 18.5073 9.61579Z" fill="black"/>
</svg>
