<svg width="44" height="44" viewBox="0 0 44 44" fill="none" xmlns="http://www.w3.org/2000/svg">
<g clip-path="url(#clip0_557_55)">
<path d="M44.5 19.25V18.75H44H39V13.75V13.25H38.5H35.75H35.25V13.75V18.75H30.25H29.75V19.25V22V22.5H30.25H35.25V27.5V28H35.75H38.5H39V27.5V22.5H44H44.5V22V19.25ZM30.25 41.75H30.75V41.25V34.375C30.75 31.6897 29.6833 29.1143 27.7845 27.2155C25.8857 25.3167 23.3103 24.25 20.625 24.25H12.375C9.68968 24.25 7.11435 25.3167 5.21554 27.2155C3.31674 29.1143 2.25 31.6897 2.25 34.375V41.25V41.75H2.75H5.5H6V41.25V34.375C6 32.6842 6.67165 31.0627 7.86719 29.8672C9.06274 28.6716 10.6842 28 12.375 28H20.625C22.3158 28 23.9373 28.6716 25.1328 29.8672C26.3284 31.0627 27 32.6842 27 34.375V41.25V41.75H27.5H30.25ZM16.5 6C17.7609 6 18.9934 6.37389 20.0418 7.07438C21.0901 7.77488 21.9072 8.77051 22.3897 9.93539C22.8722 11.1003 22.9985 12.3821 22.7525 13.6187C22.5065 14.8553 21.8994 15.9912 21.0078 16.8828C20.1162 17.7744 18.9803 18.3815 17.7437 18.6275C16.5071 18.8735 15.2253 18.7472 14.0604 18.2647C12.8955 17.7822 11.8999 16.9651 11.1994 15.9168C10.4989 14.8684 10.125 13.6359 10.125 12.375C10.125 10.6842 10.7966 9.06274 11.9922 7.86719C13.1877 6.67165 14.8092 6 16.5 6ZM16.5 2.25C14.4975 2.25 12.5399 2.84382 10.8749 3.95637C9.2098 5.06892 7.91206 6.65023 7.14572 8.50033C6.37938 10.3504 6.17887 12.3862 6.56955 14.3503C6.96022 16.3143 7.92454 18.1184 9.34054 19.5345C10.7566 20.9505 12.5607 21.9148 14.5247 22.3055C16.4888 22.6961 18.5246 22.4956 20.3747 21.7293C22.2248 20.9629 23.8061 19.6652 24.9186 18.0001C26.0312 16.3351 26.625 14.3775 26.625 12.375C26.625 9.68968 25.5583 7.11435 23.6595 5.21554C21.7607 3.31674 19.1853 2.25 16.5 2.25Z" fill="#2C95F1" stroke="#2C95F1"/>
</g>
<defs>
<clipPath id="clip0_557_55">
<rect width="44" height="44" fill="white"/>
</clipPath>
</defs>
</svg>
