<svg width="54" height="54" viewBox="0 0 54 54" fill="none" xmlns="http://www.w3.org/2000/svg">
<path d="M47.25 13H46.75V13.5V27V27.5H47.25H50.625H51.125V27V13.5V13H50.625H47.25ZM38.8125 7.9375H38.3125V8.4375V27V27.5H38.8125H42.1875H42.6875V27V8.4375V7.9375H42.1875H38.8125ZM30.375 16.375H29.875V16.875V27V27.5H30.375H33.75H34.25V27V16.875V16.375H33.75H30.375ZM27 51.125H27.5V50.625V40.5V40.4994C27.4972 38.1301 26.5547 35.8586 24.8793 34.1832C23.2039 32.5078 20.9324 31.5653 18.5631 31.5625H18.5625H11.8125H11.8119C9.44256 31.5653 7.17107 32.5078 5.49569 34.1832C3.82031 35.8586 2.87784 38.1301 2.875 40.4994V40.5V50.625V51.125H3.375H6.75H7.25V50.625L7.25 40.5005C7.25 40.5004 7.25 40.5003 7.25 40.5003C7.25127 39.2905 7.73239 38.1307 8.58781 37.2753C9.44327 36.4198 10.6032 35.9387 11.813 35.9375H18.562C19.7718 35.9387 20.9317 36.4198 21.7872 37.2753C22.6427 38.1308 23.1238 39.2907 23.125 40.5005V50.625V51.125H23.625H27ZM15.1875 15.6875C16.0899 15.6875 16.972 15.9551 17.7223 16.4564C18.4726 16.9578 19.0574 17.6703 19.4027 18.504C19.748 19.3377 19.8384 20.2551 19.6623 21.1401C19.4863 22.0251 19.0518 22.8381 18.4137 23.4762C17.7756 24.1143 16.9626 24.5488 16.0776 24.7248C15.1926 24.9009 14.2752 24.8105 13.4415 24.4652C12.6078 24.1199 11.8953 23.5351 11.3939 22.7848C10.8926 22.0345 10.625 21.1524 10.625 20.25C10.625 19.0399 11.1057 17.8795 11.9613 17.0238C12.817 16.1682 13.9774 15.6875 15.1875 15.6875ZM15.1875 11.3125C13.4198 11.3125 11.6919 11.8367 10.2221 12.8187C8.75233 13.8008 7.60678 15.1967 6.93033 16.8298C6.25387 18.4629 6.07688 20.2599 6.42173 21.9936C6.76659 23.7273 7.6178 25.3198 8.86773 26.5698C10.1177 27.8197 11.7102 28.6709 13.4439 29.0158C15.1776 29.3606 16.9746 29.1836 18.6077 28.5072C20.2408 27.8307 21.6367 26.6852 22.6188 25.2154C23.6008 23.7456 24.125 22.0177 24.125 20.25C24.125 19.0763 23.8938 17.9141 23.4447 16.8298C22.9955 15.7454 22.3372 14.7602 21.5073 13.9302C20.6773 13.1003 19.6921 12.442 18.6077 11.9928C17.5234 11.5437 16.3612 11.3125 15.1875 11.3125Z" fill="#2C95F1" stroke="#2C95F1"/>
</svg>
