<svg width="54" height="54" viewBox="0 0 54 54" fill="none" xmlns="http://www.w3.org/2000/svg">
<path d="M45.6525 18.6525L36 28.305L33.075 25.4025L29.9025 28.5975L35.9775 34.6725L48.8475 21.8475L45.6525 18.6525ZM9 18C8.97229 19.1895 9.18615 20.3722 9.62863 21.4767C10.0711 22.5811 10.733 23.5843 11.5743 24.4257C12.4157 25.267 13.4189 25.9289 14.5233 26.3714C15.6278 26.8139 16.8105 27.0277 18 27C19.1895 27.0277 20.3722 26.8139 21.4767 26.3714C22.5811 25.9289 23.5843 25.267 24.4257 24.4257C25.267 23.5843 25.9289 22.5811 26.3714 21.4767C26.8139 20.3722 27.0277 19.1895 27 18C27.0277 16.8105 26.8139 15.6278 26.3714 14.5233C25.9289 13.4189 25.267 12.4157 24.4257 11.5743C23.5843 10.733 22.5811 10.0711 21.4767 9.62863C20.3722 9.18615 19.1895 8.97229 18 9C16.8105 8.97229 15.6278 9.18615 14.5233 9.62863C13.4189 10.0711 12.4157 10.733 11.5743 11.5743C10.733 12.4157 10.0711 13.4189 9.62863 14.5233C9.18615 15.6278 8.97229 16.8105 9 18ZM22.5 18C22.5289 18.5986 22.4324 19.1967 22.2164 19.7557C22.0005 20.3148 21.6701 20.8225 21.2463 21.2463C20.8225 21.6701 20.3148 22.0005 19.7557 22.2164C19.1967 22.4324 18.5986 22.5289 18 22.5C17.4014 22.5289 16.8033 22.4324 16.2443 22.2164C15.6852 22.0005 15.1775 21.6701 14.7537 21.2463C14.3299 20.8225 13.9995 20.3148 13.7836 19.7557C13.5676 19.1967 13.4711 18.5986 13.5 18C13.4711 17.4014 13.5676 16.8033 13.7836 16.2443C13.9995 15.6852 14.3299 15.1775 14.7537 14.7537C15.1775 14.3299 15.6852 13.9995 16.2443 13.7836C16.8033 13.5676 17.4014 13.4711 18 13.5C18.5986 13.4711 19.1967 13.5676 19.7557 13.7836C20.3148 13.9995 20.8225 14.3299 21.2463 14.7537C21.6701 15.1775 22.0005 15.6852 22.2164 16.2443C22.4324 16.8033 22.5289 17.4014 22.5 18V18ZM9 40.5C9 38.7098 9.71116 36.9929 10.977 35.727C12.2429 34.4612 13.9598 33.75 15.75 33.75H20.25C22.0402 33.75 23.7571 34.4612 25.023 35.727C26.2888 36.9929 27 38.7098 27 40.5V42.75H31.5V40.5C31.5 39.0226 31.209 37.5597 30.6436 36.1948C30.0783 34.8299 29.2496 33.5897 28.2049 32.5451C27.1603 31.5004 25.9201 30.6717 24.5552 30.1064C23.1903 29.541 21.7274 29.25 20.25 29.25H15.75C12.7663 29.25 9.90483 30.4353 7.79505 32.5451C5.68526 34.6548 4.5 37.5163 4.5 40.5V42.75H9V40.5Z" fill="#2C95F1"/>
</svg>
